<?xml version="1.0" standalone="no"?><!DOCTYPE svg PUBLIC "-//W3C//DTD SVG 1.1//EN" "http://www.w3.org/Graphics/SVG/1.1/DTD/svg11.dtd"><svg t="1525750112607" class="icon" style="" viewBox="0 0 1024 1024" version="1.1" xmlns="http://www.w3.org/2000/svg" p-id="2732" xmlns:xlink="http://www.w3.org/1999/xlink" width="200" height="200"><defs><style type="text/css"></style></defs><path d="M941.943467 789.026133c9.4208-14.472533 17.885867-29.354667 25.8048-44.714666l5.3248-11.264a496.708267 496.708267 0 0 0 33.450666-90.453334c1.570133-5.9392 3.208533-11.8784 4.573867-17.749333 2.8672-12.834133 5.051733-25.8048 6.9632-38.980267 0.8192-5.666133 1.911467-11.127467 2.594133-16.861866A518.826667 518.826667 0 0 0 1024 512C1024 229.717333 794.282667 0 512 0S0 229.649067 0 512c0 19.2512 1.297067 38.229333 3.413333 56.9344 0.6144 5.7344 1.706667 11.264 2.525867 16.930133 1.979733 13.1072 4.096 26.0096 6.9632 38.775467 1.365333 6.144 3.003733 12.014933 4.573867 17.885867a530.705067 530.705067 0 0 0 16.861866 52.4288c4.983467 12.970667 10.513067 25.6 16.520534 38.024533 1.774933 3.754667 3.413333 7.509333 5.3248 11.264 7.850667 15.291733 16.384 30.242133 25.736533 44.578133l1.024 1.706667A511.726933 511.726933 0 0 0 512 1024a511.726933 511.726933 0 0 0 428.987733-233.472l0.955734-1.501867zM512 245.282133a188.416 188.416 0 0 1 188.2112 188.2112A188.552533 188.552533 0 0 1 512 621.909333a188.552533 188.552533 0 0 1-188.2112-188.416A188.416 188.416 0 0 1 512 245.282133z m-311.296 587.298134A340.241067 340.241067 0 0 1 512 628.599467c136.465067 0 257.8432 81.92 311.296 203.912533a445.576533 445.576533 0 0 1-622.592 0z" fill="#999999" p-id="2733"></path></svg>